# xmcd
#
# Track frame offsets: 
#        150
#        15151
#        27093
#        46267
#        57108
#        70827
#        87194
#        103745
#        116991
#        137244
#        150656
#        166650
#
# Disc length: 2404 seconds
#
# Revision: 0
# Processed by: cddbd v1.4PL0 Copyright (c) Steve Scherf et al.
# Submitted via: ExactAudioCopy v0.90b3
#
DISCID=8f09620c
DTITLE=Great Northern - Great Northern
DYEAR=1900
DGENRE=Bluegrass
TTITLE0=The Texas Hambone Blues
TTITLE1=Colorado Turnaround
TTITLE2=Everytime I'm Missin' You
TTITLE3=In My Time Of Dyin'
TTITLE4=Mad Headed Woman
TTITLE5=Elizabeth's Waltz
TTITLE6=Why You Been Gone So Long
TTITLE7=Lonesome Wind Blues
TTITLE8=With The Wind
TTITLE9=The Wrath Of God
TTITLE10=Three Quarter Moon
TTITLE11=I'm Gonna Sleep With One Eye Open
EXTD=
EXTT0=
EXTT1=
EXTT2=
EXTT3=
EXTT4=
EXTT5=
EXTT6=
EXTT7=
EXTT8=
EXTT9=
EXTT10=
EXTT11=
PLAYORDER=
